<svg xmlns="http://www.w3.org/2000/svg" viewBox="0 0 24 24" width="48" height="48">
  <!-- Background circle for visibility -->
  <rect x="0" y="0" width="24" height="24" fill="#1c1917" rx="4"/>
  <rect x="1" y="1" width="22" height="22" fill="#292524" rx="3"/>
  
  <!-- Pixel art white egret with distinctive plumage -->
  <!-- Plume feathers -->
  <rect x="11" y="2" width="1" height="1" fill="#ffffff"/>
  <rect x="12" y="2" width="1" height="1" fill="#ffffff"/>
  <rect x="10" y="3" width="1" height="1" fill="#ffffff"/>
  <rect x="11" y="3" width="1" height="1" fill="#ffffff"/>
  <rect x="12" y="3" width="1" height="1" fill="#ffffff"/>
  <rect x="13" y="3" width="1" height="1" fill="#ffffff"/>
  
  <!-- Head -->
  <rect x="9" y="4" width="1" height="1" fill="#ffffff"/>
  <rect x="10" y="4" width="1" height="1" fill="#ffffff"/>
  <rect x="11" y="4" width="1" height="1" fill="#ffffff"/>
  <rect x="12" y="4" width="1" height="1" fill="#ffffff"/>
  <rect x="13" y="4" width="1" height="1" fill="#ffffff"/>
  
  <!-- Eye and beak -->
  <rect x="9" y="5" width="1" height="1" fill="#ffffff"/>
  <rect x="10" y="5" width="1" height="1" fill="#000000"/> <!-- eye -->
  <rect x="11" y="5" width="1" height="1" fill="#ffffff"/>
  <rect x="12" y="5" width="1" height="1" fill="#ffffff"/>
  <rect x="13" y="5" width="1" height="1" fill="#ffffff"/>
  <rect x="14" y="5" width="1" height="1" fill="#2c2c2c"/> <!-- beak -->
  <rect x="15" y="5" width="1" height="1" fill="#2c2c2c"/> <!-- beak -->
  
  <!-- Neck -->
  <rect x="10" y="6" width="1" height="1" fill="#ffffff"/>
  <rect x="11" y="6" width="1" height="1" fill="#ffffff"/>
  <rect x="12" y="6" width="1" height="1" fill="#ffffff"/>
  <rect x="13" y="6" width="1" height="1" fill="#ffffff"/>
  
  <rect x="10" y="7" width="1" height="1" fill="#ffffff"/>
  <rect x="11" y="7" width="1" height="1" fill="#ffffff"/>
  <rect x="12" y="7" width="1" height="1" fill="#ffffff"/>
  <rect x="13" y="7" width="1" height="1" fill="#ffffff"/>
  
  <!-- Body with fluffy plumage -->
  <rect x="8" y="8" width="1" height="1" fill="#ffffff"/>
  <rect x="9" y="8" width="1" height="1" fill="#ffffff"/>
  <rect x="10" y="8" width="1" height="1" fill="#ffffff"/>
  <rect x="11" y="8" width="1" height="1" fill="#ffffff"/>
  <rect x="12" y="8" width="1" height="1" fill="#ffffff"/>
  <rect x="13" y="8" width="1" height="1" fill="#ffffff"/>
  <rect x="14" y="8" width="1" height="1" fill="#ffffff"/>
  <rect x="15" y="8" width="1" height="1" fill="#ffffff"/>
  
  <rect x="7" y="9" width="1" height="1" fill="#ffffff"/>
  <rect x="8" y="9" width="1" height="1" fill="#ffffff"/>
  <rect x="9" y="9" width="1" height="1" fill="#ffffff"/>
  <rect x="10" y="9" width="1" height="1" fill="#ffffff"/>
  <rect x="11" y="9" width="1" height="1" fill="#ffffff"/>
  <rect x="12" y="9" width="1" height="1" fill="#ffffff"/>
  <rect x="13" y="9" width="1" height="1" fill="#ffffff"/>
  <rect x="14" y="9" width="1" height="1" fill="#ffffff"/>
  <rect x="15" y="9" width="1" height="1" fill="#ffffff"/>
  <rect x="16" y="9" width="1" height="1" fill="#ffffff"/>
  
  <rect x="6" y="10" width="1" height="1" fill="#f0f0f0"/>
  <rect x="7" y="10" width="1" height="1" fill="#ffffff"/>
  <rect x="8" y="10" width="1" height="1" fill="#ffffff"/>
  <rect x="9" y="10" width="1" height="1" fill="#ffffff"/>
  <rect x="10" y="10" width="1" height="1" fill="#ffffff"/>
  <rect x="11" y="10" width="1" height="1" fill="#ffffff"/>
  <rect x="12" y="10" width="1" height="1" fill="#ffffff"/>
  <rect x="13" y="10" width="1" height="1" fill="#ffffff"/>
  <rect x="14" y="10" width="1" height="1" fill="#ffffff"/>
  <rect x="15" y="10" width="1" height="1" fill="#ffffff"/>
  <rect x="16" y="10" width="1" height="1" fill="#ffffff"/>
  <rect x="17" y="10" width="1" height="1" fill="#f0f0f0"/>
  
  <rect x="7" y="11" width="1" height="1" fill="#ffffff"/>
  <rect x="8" y="11" width="1" height="1" fill="#ffffff"/>
  <rect x="9" y="11" width="1" height="1" fill="#ffffff"/>
  <rect x="10" y="11" width="1" height="1" fill="#ffffff"/>
  <rect x="11" y="11" width="1" height="1" fill="#ffffff"/>
  <rect x="12" y="11" width="1" height="1" fill="#ffffff"/>
  <rect x="13" y="11" width="1" height="1" fill="#ffffff"/>
  <rect x="14" y="11" width="1" height="1" fill="#ffffff"/>
  <rect x="15" y="11" width="1" height="1" fill="#ffffff"/>
  <rect x="16" y="11" width="1" height="1" fill="#ffffff"/>
  
  <rect x="8" y="12" width="1" height="1" fill="#ffffff"/>
  <rect x="9" y="12" width="1" height="1" fill="#ffffff"/>
  <rect x="10" y="12" width="1" height="1" fill="#ffffff"/>
  <rect x="11" y="12" width="1" height="1" fill="#ffffff"/>
  <rect x="12" y="12" width="1" height="1" fill="#ffffff"/>
  <rect x="13" y="12" width="1" height="1" fill="#ffffff"/>
  <rect x="14" y="12" width="1" height="1" fill="#ffffff"/>
  <rect x="15" y="12" width="1" height="1" fill="#ffffff"/>
  
  <rect x="9" y="13" width="1" height="1" fill="#ffffff"/>
  <rect x="10" y="13" width="1" height="1" fill="#ffffff"/>
  <rect x="11" y="13" width="1" height="1" fill="#ffffff"/>
  <rect x="12" y="13" width="1" height="1" fill="#ffffff"/>
  <rect x="13" y="13" width="1" height="1" fill="#ffffff"/>
  <rect x="14" y="13" width="1" height="1" fill="#ffffff"/>
  
  <!-- Tail feathers -->
  <rect x="10" y="14" width="1" height="1" fill="#ffffff"/>
  <rect x="11" y="14" width="1" height="1" fill="#ffffff"/>
  <rect x="12" y="14" width="1" height="1" fill="#ffffff"/>
  <rect x="13" y="14" width="1" height="1" fill="#ffffff"/>
  
  <rect x="11" y="15" width="1" height="1" fill="#f0f0f0"/>
  <rect x="12" y="15" width="1" height="1" fill="#f0f0f0"/>
  
  <!-- Legs -->
  <rect x="10" y="16" width="1" height="1" fill="#ffa500"/>
  <rect x="13" y="16" width="1" height="1" fill="#ffa500"/>
  
  <rect x="10" y="17" width="1" height="1" fill="#ffa500"/>
  <rect x="13" y="17" width="1" height="1" fill="#ffa500"/>
  
  <rect x="10" y="18" width="1" height="1" fill="#ffa500"/>
  <rect x="13" y="18" width="1" height="1" fill="#ffa500"/>
  
  <rect x="10" y="19" width="1" height="1" fill="#ffa500"/>
  <rect x="13" y="19" width="1" height="1" fill="#ffa500"/>
  
  <!-- Feet -->
  <rect x="9" y="20" width="1" height="1" fill="#ffa500"/>
  <rect x="10" y="20" width="1" height="1" fill="#ffa500"/>
  <rect x="11" y="20" width="1" height="1" fill="#ffa500"/>
  
  <rect x="12" y="20" width="1" height="1" fill="#ffa500"/>
  <rect x="13" y="20" width="1" height="1" fill="#ffa500"/>
  <rect x="14" y="20" width="1" height="1" fill="#ffa500"/>
</svg>