<svg xmlns="http://www.w3.org/2000/svg" viewBox="0 0 24 24" width="48" height="48">
  <style>
    .bird-bg { fill: #f5f5f4; }
    .bird-bg-inner { fill: #fafaf9; }
    .bird-body { fill: #525252; }
    .bird-eye { fill: #000000; }
    .bird-beak { fill: #171717; }
    .bird-legs { fill: #ea580c; }
    .bird-accent { fill: #737373; }
    
    @media (prefers-color-scheme: dark) {
      .bird-bg { fill: #1c1917; }
      .bird-bg-inner { fill: #292524; }
      .bird-body { fill: #ffffff; }
      .bird-eye { fill: #000000; }
      .bird-beak { fill: #404040; }
      .bird-legs { fill: #fb923c; }
      .bird-accent { fill: #f0f0f0; }
    }
  </style>
  
  <!-- Background for visibility -->
  <rect x="0" y="0" width="24" height="24" class="bird-bg" rx="4"/>
  <rect x="1" y="1" width="22" height="22" class="bird-bg-inner" rx="3"/>
  
  <!-- Pixel art egret with distinctive plumage -->
  <!-- Plume feathers -->
  <rect x="11" y="2" width="1" height="1" class="bird-body"/>
  <rect x="12" y="2" width="1" height="1" class="bird-body"/>
  <rect x="10" y="3" width="1" height="1" class="bird-body"/>
  <rect x="11" y="3" width="1" height="1" class="bird-body"/>
  <rect x="12" y="3" width="1" height="1" class="bird-body"/>
  <rect x="13" y="3" width="1" height="1" class="bird-body"/>
  
  <!-- Head -->
  <rect x="9" y="4" width="1" height="1" class="bird-body"/>
  <rect x="10" y="4" width="1" height="1" class="bird-body"/>
  <rect x="11" y="4" width="1" height="1" class="bird-body"/>
  <rect x="12" y="4" width="1" height="1" class="bird-body"/>
  <rect x="13" y="4" width="1" height="1" class="bird-body"/>
  
  <!-- Eye and beak -->
  <rect x="9" y="5" width="1" height="1" class="bird-body"/>
  <rect x="10" y="5" width="1" height="1" class="bird-eye"/>
  <rect x="11" y="5" width="1" height="1" class="bird-body"/>
  <rect x="12" y="5" width="1" height="1" class="bird-body"/>
  <rect x="13" y="5" width="1" height="1" class="bird-body"/>
  <rect x="14" y="5" width="1" height="1" class="bird-beak"/>
  <rect x="15" y="5" width="1" height="1" class="bird-beak"/>
  
  <!-- Neck -->
  <rect x="10" y="6" width="1" height="1" class="bird-body"/>
  <rect x="11" y="6" width="1" height="1" class="bird-body"/>
  <rect x="12" y="6" width="1" height="1" class="bird-body"/>
  <rect x="13" y="6" width="1" height="1" class="bird-body"/>
  
  <rect x="10" y="7" width="1" height="1" class="bird-body"/>
  <rect x="11" y="7" width="1" height="1" class="bird-body"/>
  <rect x="12" y="7" width="1" height="1" class="bird-body"/>
  <rect x="13" y="7" width="1" height="1" class="bird-body"/>
  
  <!-- Body with fluffy plumage -->
  <rect x="8" y="8" width="1" height="1" class="bird-body"/>
  <rect x="9" y="8" width="1" height="1" class="bird-body"/>
  <rect x="10" y="8" width="1" height="1" class="bird-body"/>
  <rect x="11" y="8" width="1" height="1" class="bird-body"/>
  <rect x="12" y="8" width="1" height="1" class="bird-body"/>
  <rect x="13" y="8" width="1" height="1" class="bird-body"/>
  <rect x="14" y="8" width="1" height="1" class="bird-body"/>
  <rect x="15" y="8" width="1" height="1" class="bird-body"/>
  
  <rect x="7" y="9" width="1" height="1" class="bird-body"/>
  <rect x="8" y="9" width="1" height="1" class="bird-body"/>
  <rect x="9" y="9" width="1" height="1" class="bird-body"/>
  <rect x="10" y="9" width="1" height="1" class="bird-body"/>
  <rect x="11" y="9" width="1" height="1" class="bird-body"/>
  <rect x="12" y="9" width="1" height="1" class="bird-body"/>
  <rect x="13" y="9" width="1" height="1" class="bird-body"/>
  <rect x="14" y="9" width="1" height="1" class="bird-body"/>
  <rect x="15" y="9" width="1" height="1" class="bird-body"/>
  <rect x="16" y="9" width="1" height="1" class="bird-body"/>
  
  <rect x="6" y="10" width="1" height="1" class="bird-accent"/>
  <rect x="7" y="10" width="1" height="1" class="bird-body"/>
  <rect x="8" y="10" width="1" height="1" class="bird-body"/>
  <rect x="9" y="10" width="1" height="1" class="bird-body"/>
  <rect x="10" y="10" width="1" height="1" class="bird-body"/>
  <rect x="11" y="10" width="1" height="1" class="bird-body"/>
  <rect x="12" y="10" width="1" height="1" class="bird-body"/>
  <rect x="13" y="10" width="1" height="1" class="bird-body"/>
  <rect x="14" y="10" width="1" height="1" class="bird-body"/>
  <rect x="15" y="10" width="1" height="1" class="bird-body"/>
  <rect x="16" y="10" width="1" height="1" class="bird-body"/>
  <rect x="17" y="10" width="1" height="1" class="bird-accent"/>
  
  <rect x="7" y="11" width="1" height="1" class="bird-body"/>
  <rect x="8" y="11" width="1" height="1" class="bird-body"/>
  <rect x="9" y="11" width="1" height="1" class="bird-body"/>
  <rect x="10" y="11" width="1" height="1" class="bird-body"/>
  <rect x="11" y="11" width="1" height="1" class="bird-body"/>
  <rect x="12" y="11" width="1" height="1" class="bird-body"/>
  <rect x="13" y="11" width="1" height="1" class="bird-body"/>
  <rect x="14" y="11" width="1" height="1" class="bird-body"/>
  <rect x="15" y="11" width="1" height="1" class="bird-body"/>
  <rect x="16" y="11" width="1" height="1" class="bird-body"/>
  
  <rect x="8" y="12" width="1" height="1" class="bird-body"/>
  <rect x="9" y="12" width="1" height="1" class="bird-body"/>
  <rect x="10" y="12" width="1" height="1" class="bird-body"/>
  <rect x="11" y="12" width="1" height="1" class="bird-body"/>
  <rect x="12" y="12" width="1" height="1" class="bird-body"/>
  <rect x="13" y="12" width="1" height="1" class="bird-body"/>
  <rect x="14" y="12" width="1" height="1" class="bird-body"/>
  <rect x="15" y="12" width="1" height="1" class="bird-body"/>
  
  <rect x="9" y="13" width="1" height="1" class="bird-body"/>
  <rect x="10" y="13" width="1" height="1" class="bird-body"/>
  <rect x="11" y="13" width="1" height="1" class="bird-body"/>
  <rect x="12" y="13" width="1" height="1" class="bird-body"/>
  <rect x="13" y="13" width="1" height="1" class="bird-body"/>
  <rect x="14" y="13" width="1" height="1" class="bird-body"/>
  
  <!-- Tail feathers -->
  <rect x="10" y="14" width="1" height="1" class="bird-body"/>
  <rect x="11" y="14" width="1" height="1" class="bird-body"/>
  <rect x="12" y="14" width="1" height="1" class="bird-body"/>
  <rect x="13" y="14" width="1" height="1" class="bird-body"/>
  
  <rect x="11" y="15" width="1" height="1" class="bird-accent"/>
  <rect x="12" y="15" width="1" height="1" class="bird-accent"/>
  
  <!-- Legs -->
  <rect x="10" y="16" width="1" height="1" class="bird-legs"/>
  <rect x="13" y="16" width="1" height="1" class="bird-legs"/>
  
  <rect x="10" y="17" width="1" height="1" class="bird-legs"/>
  <rect x="13" y="17" width="1" height="1" class="bird-legs"/>
  
  <rect x="10" y="18" width="1" height="1" class="bird-legs"/>
  <rect x="13" y="18" width="1" height="1" class="bird-legs"/>
  
  <rect x="10" y="19" width="1" height="1" class="bird-legs"/>
  <rect x="13" y="19" width="1" height="1" class="bird-legs"/>
  
  <!-- Feet -->
  <rect x="9" y="20" width="1" height="1" class="bird-legs"/>
  <rect x="10" y="20" width="1" height="1" class="bird-legs"/>
  <rect x="11" y="20" width="1" height="1" class="bird-legs"/>
  
  <rect x="12" y="20" width="1" height="1" class="bird-legs"/>
  <rect x="13" y="20" width="1" height="1" class="bird-legs"/>
  <rect x="14" y="20" width="1" height="1" class="bird-legs"/>
</svg>